<svg version="1.1" id="logo" xmlns="http://www.w3.org/2000/svg" xmlns:xlink="http://www.w3.org/1999/xlink" x="0px" y="0px" width="500px" height="100.5px" viewBox="0 0 500 100.5" enable-background="new 0 0 500 100.5" xml:space="preserve">
<path d="M222.227,96.248H129.38V3.404h92.847L199.01,49.826L222.227,96.248z" id="b_1"></path>
<rect x="5.365" y="3.404" width="31.171" height="92.844" id="t_1"></rect>
<path d="M67.371,3.404h31.17v92.844h-31.17V3.404z" id="t_2"></path>
<path d="M345.904,96.248h-92.844V3.404h92.844l-23.211,46.422L345.904,96.248z" id="b_2"></path>
<g id="logo_name">
	<path d="M388.211,28.782h-5.38V7.883h-6.892V3.404h19.164v4.479h-6.894L388.211,28.782L388.211,28.782z"></path>
	<path d="M419.491,28.782h-5.366V17.828h-10.05v10.954h-5.382V3.404h5.382v9.946h10.05V3.404h5.366V28.782z"></path>
	<path d="M437.9,28.782h-14.614V3.404H437.9v4.408h-9.234v5.573h8.592v4.409h-8.592v6.544h9.234V28.782z"></path>
	<path d="M377.074,37.134h7.896c3.602,0,6.211,0.511,7.84,1.536c1.625,1.024,2.438,2.653,2.438,4.886
		c0,1.517-0.354,2.76-1.064,3.732c-0.715,0.973-1.66,1.557-2.84,1.753v0.174c1.606,0.358,2.768,1.03,3.479,2.012
		c0.713,0.984,1.067,2.291,1.067,3.924c0,2.312-0.834,4.119-2.508,5.414c-1.673,1.297-3.943,1.945-6.812,1.945h-9.495
		L377.074,37.134L377.074,37.134z M382.456,47.185h3.123c1.459,0,2.516-0.226,3.17-0.677c0.651-0.451,0.979-1.198,0.979-2.24
		c0-0.971-0.354-1.669-1.065-2.092c-0.711-0.422-1.838-0.634-3.377-0.634h-2.829L382.456,47.185L382.456,47.185z M382.456,51.455
		v6.613h3.507c1.479,0,2.574-0.283,3.279-0.851c0.707-0.567,1.061-1.436,1.061-2.604c0-2.105-1.506-3.158-4.514-3.158H382.456z"></path>
	<path d="M399.489,62.512V37.134h5.381v25.377L399.489,62.512L399.489,62.512z"></path>
	<path d="M419.343,48.261h10.065v13.157c-1.632,0.533-3.169,0.906-4.607,1.119c-1.438,0.215-2.914,0.322-4.418,0.322
		c-3.831,0-6.758-1.125-8.775-3.377c-2.019-2.25-3.028-5.48-3.028-9.694c0-4.097,1.171-7.291,3.515-9.582
		c2.342-2.292,5.594-3.437,9.748-3.437c2.604,0,5.114,0.52,7.533,1.562l-1.788,4.305c-1.853-0.926-3.779-1.389-5.779-1.389
		c-2.327,0-4.188,0.782-5.589,2.345c-1.4,1.561-2.104,3.662-2.104,6.3c0,2.754,0.566,4.858,1.691,6.309
		c1.131,1.453,2.771,2.178,4.924,2.178c1.121,0,2.262-0.113,3.419-0.346V52.74h-4.807V48.261z"></path>
	<path d="M443.656,48.261h10.067v13.157c-1.634,0.533-3.169,0.906-4.608,1.119c-1.441,0.215-2.914,0.322-4.416,0.322
		c-3.831,0-6.757-1.125-8.774-3.377c-2.021-2.25-3.028-5.48-3.028-9.694c0-4.097,1.171-7.291,3.516-9.582
		c2.341-2.292,5.59-3.437,9.743-3.437c2.604,0,5.114,0.52,7.535,1.562l-1.79,4.305c-1.85-0.926-3.775-1.389-5.779-1.389
		c-2.325,0-4.19,0.782-5.588,2.345c-1.4,1.561-2.103,3.662-2.103,6.3c0,2.754,0.566,4.858,1.695,6.309
		c1.126,1.453,2.765,2.178,4.92,2.178c1.12,0,2.262-0.113,3.418-0.346V52.74h-4.808V48.261z"></path>
	<path d="M472.281,62.512h-14.614V37.134h14.614v4.408h-9.235v5.572h8.593v4.411h-8.593v6.543h9.235V62.512z"></path>
	<path d="M481.108,52.773v9.737h-5.383V37.134h7.396c3.448,0,6.001,0.628,7.653,1.883c1.656,1.256,2.483,3.163,2.483,5.721
		c0,1.492-0.413,2.819-1.231,3.983c-0.82,1.164-1.983,2.074-3.488,2.734c3.819,5.705,6.305,9.391,7.462,11.057h-5.97l-6.06-9.738
		H481.108L481.108,52.773z M481.108,48.401h1.733c1.703,0,2.957-0.285,3.768-0.853c0.81-0.565,1.215-1.458,1.215-2.672
		c0-1.205-0.411-2.061-1.241-2.57c-0.826-0.509-2.109-0.764-3.843-0.764h-1.632V48.401z"></path>
	<path d="M377.074,70.871h7.896c3.602,0,6.211,0.512,7.84,1.537c1.625,1.023,2.438,2.652,2.438,4.885
		c0,1.518-0.354,2.76-1.064,3.732c-0.715,0.973-1.66,1.557-2.84,1.752v0.174c1.606,0.359,2.768,1.031,3.479,2.014
		c0.713,0.984,1.067,2.291,1.067,3.924c0,2.314-0.834,4.119-2.508,5.416c-1.673,1.297-3.943,1.943-6.812,1.943h-9.495
		L377.074,70.871L377.074,70.871z M382.456,80.922h3.123c1.459,0,2.516-0.227,3.17-0.678c0.651-0.451,0.979-1.197,0.979-2.24
		c0-0.971-0.354-1.668-1.065-2.09c-0.711-0.424-1.838-0.635-3.377-0.635h-2.829L382.456,80.922L382.456,80.922z M382.456,85.191
		v6.613h3.507c1.479,0,2.574-0.283,3.279-0.853c0.707-0.566,1.061-1.435,1.061-2.604c0-2.104-1.506-3.158-4.514-3.158h-3.333V85.191
		z"></path>
	<path d="M422.657,83.525c0,4.199-1.041,7.428-3.125,9.686c-2.084,2.256-5.067,3.385-8.954,3.385c-3.891,0-6.876-1.129-8.96-3.385
		c-2.081-2.258-3.121-5.496-3.121-9.721s1.043-7.449,3.13-9.678c2.09-2.228,5.083-3.34,8.984-3.34c3.898,0,6.881,1.12,8.947,3.366
		C421.625,76.084,422.657,79.312,422.657,83.525L422.657,83.525z M404.137,83.525c0,2.834,0.539,4.969,1.615,6.404
		c1.078,1.436,2.684,2.153,4.826,2.153c4.292,0,6.438-2.854,6.438-8.56c0-5.719-2.133-8.573-6.402-8.573
		c-2.143,0-3.756,0.719-4.846,2.159C404.682,78.553,404.137,80.689,404.137,83.525L404.137,83.525z"></path>
	<path d="M441.647,96.248l-1.842-6.041h-9.252l-1.842,6.041h-5.794l8.954-25.482h6.582l8.99,25.482H441.647z M438.525,85.695
		c-1.702-5.475-2.66-8.568-2.874-9.287c-0.217-0.719-0.367-1.285-0.46-1.701c-0.384,1.48-1.477,5.145-3.283,10.988H438.525z"></path>
	<path d="M457.372,96.248h-5.381V75.35H445.1v-4.479h19.164v4.479h-6.893L457.372,96.248L457.372,96.248z"></path>
</g>
<g id="rotate">
<path d="M5.713,280.83l0-92.847h92.844v92.847l-46.422-23.217L5.713,280.83z"></path>
<path d="M98.557,125.975v31.17H5.713v-31.17H98.557z"></path>
<path d="M5.713,404.508v-92.844h92.844v92.844l-46.422-23.211L5.713,404.508z"></path>
<g id="rotate_name">
	<path d="M73.179,446.814v-5.38h20.9v-6.892h4.479v19.164h-4.479v-6.894L73.179,446.814L73.179,446.814z"></path>
	<path d="M73.179,478.095v-5.366h10.955v-10.05H73.179v-5.382h25.378v5.382h-9.945v10.05h9.945v5.366H73.179z"></path>
	<path d="M73.179,496.504V481.89h25.378v14.614h-4.408v-9.234h-5.572v8.592h-4.409v-8.592h-6.544v9.234H73.179z"></path>
	<path d="M64.827,435.678v7.896c0,3.602-0.511,6.211-1.536,7.84c-1.023,1.625-2.653,2.438-4.887,2.438
		c-1.517,0-2.76-0.354-3.731-1.064c-0.973-0.715-1.558-1.66-1.753-2.84h-0.174c-0.358,1.606-1.03,2.768-2.012,3.479
		c-0.984,0.713-2.291,1.067-3.924,1.067c-2.312,0-4.119-0.834-5.414-2.508c-1.297-1.673-1.945-3.943-1.945-6.812v-9.495
		L64.827,435.678L64.827,435.678z M54.775,441.06v3.123c0,1.459,0.227,2.516,0.678,3.17c0.451,0.651,1.197,0.979,2.24,0.979
		c0.971,0,1.668-0.354,2.092-1.065c0.422-0.711,0.634-1.838,0.634-3.377v-2.829L54.775,441.06L54.775,441.06z M50.506,441.06h-6.613
		v3.507c0,1.479,0.283,2.574,0.851,3.279c0.567,0.707,1.436,1.061,2.604,1.061c2.105,0,3.158-1.506,3.158-4.514V441.06z"></path>
	<path d="M39.449,458.093h25.378v5.381H39.45L39.449,458.093L39.449,458.093z"></path>
	<path d="M53.7,477.946v10.065H40.543c-0.533-1.632-0.906-3.169-1.119-4.607c-0.215-1.438-0.322-2.914-0.322-4.418
		c0-3.831,1.125-6.758,3.377-8.775c2.25-2.019,5.48-3.028,9.694-3.028c4.097,0,7.291,1.171,9.582,3.515
		c2.292,2.342,3.437,5.594,3.437,9.748c0,2.604-0.52,5.114-1.562,7.533l-4.305-1.788c0.926-1.853,1.389-3.779,1.389-5.779
		c0-2.327-0.782-4.188-2.345-5.589c-1.561-1.4-3.662-2.104-6.301-2.104c-2.754,0-4.857,0.566-6.309,1.691
		c-1.453,1.131-2.178,2.771-2.178,4.924c0,1.121,0.113,2.262,0.346,3.419h5.293v-4.807H53.7z"></path>
	<path d="M53.7,502.26v10.067H40.543c-0.533-1.634-0.906-3.169-1.119-4.608c-0.215-1.441-0.322-2.914-0.322-4.416
		c0-3.831,1.125-6.757,3.377-8.774c2.25-2.021,5.48-3.028,9.694-3.028c4.097,0,7.291,1.171,9.582,3.516
		c2.292,2.341,3.437,5.59,3.437,9.743c0,2.604-0.52,5.114-1.562,7.535l-4.305-1.79c0.926-1.85,1.389-3.775,1.389-5.779
		c0-2.325-0.782-4.19-2.345-5.588c-1.561-1.4-3.662-2.103-6.301-2.103c-2.754,0-4.857,0.566-6.309,1.695
		c-1.453,1.126-2.178,2.765-2.178,4.92c0,1.12,0.113,2.262,0.346,3.418h5.293v-4.808H53.7z"></path>
	<path d="M39.449,530.885v-14.614h25.378v14.614h-4.408v-9.235h-5.572v8.593h-4.411v-8.593h-6.543v9.235H39.449z"></path>
	<path d="M49.188,539.712H39.45v-5.383h25.377v7.396c0,3.448-0.628,6.001-1.884,7.653c-1.256,1.656-3.162,2.483-5.721,2.483
		c-1.492,0-2.818-0.413-3.982-1.231c-1.164-0.82-2.074-1.983-2.734-3.488c-5.705,3.819-9.391,6.305-11.057,7.462v-5.97l9.738-6.06
		V539.712L49.188,539.712z M53.561,539.712v1.733c0,1.703,0.284,2.957,0.853,3.768c0.565,0.81,1.458,1.215,2.672,1.215
		c1.205,0,2.062-0.411,2.569-1.241c0.51-0.826,0.765-2.109,0.765-3.843v-1.632H53.561z"></path>
	<path d="M31.09,435.678v7.896c0,3.602-0.512,6.211-1.537,7.84c-1.023,1.625-2.652,2.438-4.885,2.438
		c-1.518,0-2.76-0.354-3.732-1.064c-0.973-0.715-1.557-1.66-1.752-2.84H19.01c-0.359,1.606-1.031,2.768-2.014,3.479
		c-0.984,0.713-2.291,1.067-3.924,1.067c-2.314,0-4.119-0.834-5.416-2.508c-1.297-1.673-1.943-3.943-1.943-6.812v-9.495
		L31.09,435.678L31.09,435.678z M21.039,441.06v3.123c0,1.459,0.227,2.516,0.678,3.17c0.451,0.651,1.197,0.979,2.24,0.979
		c0.971,0,1.668-0.354,2.09-1.065c0.424-0.711,0.635-1.838,0.635-3.377v-2.829L21.039,441.06L21.039,441.06z M16.77,441.06h-6.613
		v3.507c0,1.479,0.283,2.574,0.853,3.279c0.566,0.707,1.435,1.061,2.604,1.061c2.104,0,3.158-1.506,3.158-4.514v-3.333H16.77z"></path>
	<path d="M18.436,481.261c-4.199,0-7.428-1.041-9.686-3.125c-2.256-2.084-3.385-5.067-3.385-8.954c0-3.891,1.129-6.876,3.385-8.96
		c2.258-2.081,5.496-3.121,9.721-3.121s7.449,1.043,9.678,3.13c2.228,2.09,3.34,5.083,3.34,8.984c0,3.898-1.12,6.881-3.366,8.947
		C25.877,480.229,22.648,481.261,18.436,481.261L18.436,481.261z M18.436,462.74c-2.834,0-4.969,0.539-6.404,1.615
		c-1.436,1.078-2.153,2.684-2.153,4.826c0,4.292,2.854,6.438,8.56,6.438c5.719,0,8.573-2.133,8.573-6.402
		c0-2.143-0.719-3.756-2.159-4.846C23.408,463.285,21.271,462.74,18.436,462.74L18.436,462.74z"></path>
	<path d="M5.713,500.251l6.041-1.842v-9.252l-6.041-1.842v-5.794l25.482,8.954v6.582l-25.482,8.99V500.251z M16.266,497.129
		c5.475-1.702,8.568-2.66,9.287-2.874c0.719-0.217,1.285-0.367,1.701-0.46c-1.48-0.384-5.145-1.477-10.988-3.283V497.129z"></path>
	<path d="M5.713,515.976v-5.381h20.898v-6.892h4.479v19.164h-4.479v-6.893L5.713,515.976L5.713,515.976z"></path>
</g>
</g>
</svg>